<?xml version="1.0" standalone="no"?>
<!DOCTYPE svg PUBLIC "-//W3C//DTD SVG 20010904//EN"
 "http://www.w3.org/TR/2001/REC-SVG-20010904/DTD/svg10.dtd">
<svg version="1.0" xmlns="http://www.w3.org/2000/svg"
 width="512.000000pt" height="512.000000pt" viewBox="0 0 512.000000 512.000000"
 preserveAspectRatio="xMidYMid meet">
<metadata>
Created by potrace 1.11, written by Peter Selinger 2001-2013
</metadata>
<g transform="translate(0.000000,512.000000) scale(0.100000,-0.100000)"
fill="#000000" stroke="none">
<path d="M2070 5113 c-537 -43 -1024 -263 -1396 -630 -151 -149 -202 -211
-306 -368 -149 -225 -261 -487 -313 -735 -9 -41 -18 -82 -20 -91 -3 -16 -9
-60 -25 -184 -8 -66 -5 -403 4 -475 9 -61 15 -100 21 -130 73 -372 229 -718
448 -990 338 -420 784 -692 1307 -799 88 -18 147 -26 260 -36 52 -5 289 -5
340 -1 88 8 171 18 197 22 330 59 601 168 877 352 l139 93 146 -146 c140 -138
147 -147 149 -188 2 -23 5 -50 8 -59 3 -9 7 -26 9 -38 13 -69 56 -123 279
-349 127 -128 252 -251 278 -272 210 -168 533 -73 624 185 19 52 26 173 13
223 -29 106 -56 141 -304 388 -132 132 -252 249 -266 260 -61 48 -142 76 -228
80 -29 1 -53 20 -182 150 l-148 148 31 46 c18 25 34 48 37 51 3 3 22 30 42 60
146 224 265 514 315 765 4 22 8 42 9 45 1 3 5 32 9 65 4 33 10 71 13 85 12 61
11 410 -2 515 -78 612 -393 1157 -880 1520 -294 219 -679 379 -1010 419 -27 4
-68 9 -90 12 -44 6 -328 11 -385 7z m416 -553 c239 -42 411 -104 594 -213 340
-203 593 -507 731 -879 31 -85 68 -223 75 -282 3 -21 9 -59 14 -85 9 -48 7
-403 -3 -456 -76 -411 -231 -706 -512 -976 -33 -31 -78 -71 -100 -89 -22 -17
-47 -36 -55 -43 -46 -37 -177 -117 -260 -158 -125 -62 -269 -112 -383 -135
-10 -2 -26 -5 -35 -8 -9 -3 -41 -8 -71 -11 -30 -4 -63 -9 -75 -11 -28 -7 -343
-7 -353 -1 -5 3 -37 8 -73 12 -77 8 -226 44 -328 80 -122 43 -334 155 -413
219 -15 11 -39 30 -55 41 -76 54 -205 185 -291 295 -179 228 -304 522 -338
795 -4 28 -9 64 -11 80 -11 66 -4 329 11 405 2 14 7 41 10 60 12 71 48 197 82
290 191 512 648 918 1173 1041 122 28 120 28 185 35 33 3 61 7 63 9 12 11 333
0 418 -15z"/>
<path d="M1970 4334 c-30 -8 -60 -16 -66 -17 -6 -2 -23 -10 -37 -20 -15 -9
-29 -17 -33 -17 -3 0 -28 -18 -54 -40 -82 -69 -149 -187 -164 -290 l-7 -45
133 0 133 0 18 47 c12 32 34 60 64 85 l46 38 196 3 c124 2 210 0 233 -7 53
-16 98 -58 123 -116 l23 -50 123 1 c68 1 127 2 132 3 8 1 0 74 -12 106 -45
121 -131 225 -227 277 -86 46 -157 57 -373 56 -135 0 -213 -5 -251 -14z"/>
<path d="M1084 3745 c-74 -37 -151 -109 -163 -152 -20 -70 32 -222 114 -333
50 -68 156 -165 244 -222 185 -121 396 -196 686 -243 66 -10 395 -14 465 -5
36 5 81 11 100 14 220 29 489 130 662 247 87 60 192 162 243 238 81 122 117
252 90 319 -15 35 -105 112 -166 140 l-45 22 -1090 0 -1090 0 -50 -25z"/>
<path d="M847 3124 c-2 -5 -5 -185 -5 -401 0 -282 3 -408 12 -447 31 -130 132
-231 256 -254 25 -5 538 -8 1140 -8 l1095 1 62 29 c75 34 134 95 171 174 l27
57 2 415 c2 228 0 421 -2 429 -4 10 -31 -12 -88 -70 -91 -94 -139 -134 -242
-201 -204 -132 -500 -234 -765 -263 -25 -3 -66 -8 -91 -11 -65 -8 -321 -8
-399 0 -250 26 -477 87 -670 179 -173 82 -286 163 -415 294 -45 47 -85 81 -88
77z"/>
</g>
</svg>
